<?xml version="1.0" encoding="UTF-8"?><svg id="a" xmlns="http://www.w3.org/2000/svg" viewBox="0 0 223.85 214.58"><defs><style>.b{stroke:#000;}.b,.c{fill:none;stroke-linecap:round;stroke-linejoin:round;stroke-width:2px;}.c{stroke:#060606;}.d,.e{stroke-width:0px;}.e{fill:#fff;}</style></defs><path class="c" d="m122.13,123.72l-1.49-94.8-10.14-7.35-9.42,7.46-.22,95.3m6.42,20.55l-1.49-104.12-6.06-6.36-13.51,6.48-.22,104.67m9.06,17.69l-1.49-104.12-6.06-6.36-13.51,6.48-.22,104.67m7.84,17.03l-1.49-104.12-6.06-6.36-13.51,6.48-.22,104.67m76.61-36.89l-1.49-104.12-13.33-6.63-6.23,6.75-.22,104.67m34.21,18.22l-1.49-104.12-13.33-6.63-6.23,6.75-.22,104.67m34.85,17.12l-1.49-104.12-13.33-6.63-6.23,6.75-.22,104.67"/><rect class="e" x="37.09" y="156.13" width="151.53" height="26.35"/><path class="b" d="m111.93,1c147.91,2.47,147.89,210.13,0,212.58-147.91-2.48-147.89-210.12,0-212.58Z"/><path class="c" d="m39.07,158.69h144.58m-144.58,21.89h144.74"/><path class="d" d="m75.98,176.88c.15,0,.27-.01.36-.04.08-.02.13-.12.13-.28,0-.05-.08-.19-.23-.43s-.35-.54-.59-.89c-.24-.35-.5-.73-.79-1.13-.29-.4-.56-.78-.82-1.15-.25-.37-.49-.69-.69-.96-.2-.27-.34-.46-.41-.55l-2.5,2.11v2.88c0,.11.04.2.12.28.08.07.28.12.6.16v.29h-5.26v-.29c.32-.03.52-.08.6-.16.08-.07.12-.16.12-.28v-11.18c0-.11-.04-.2-.12-.28-.08-.07-.28-.12-.6-.16v-.29h5.26v.29c-.32.03-.52.08-.6.16-.08.07-.12.16-.12.28v4.32h.18c.51-.46,1.06-.94,1.65-1.44.59-.5,1.13-.96,1.62-1.38.49-.42.91-.78,1.24-1.08.33-.3.5-.48.5-.54,0-.14-.04-.23-.13-.25-.09-.02-.2-.04-.33-.06v-.29h6.48v.29c-.17.02-.31.04-.42.07s-.21.08-.31.14c-.09.06-.2.14-.31.23-.11.09-.24.2-.4.32l-4.42,3.57,5.21,7.32c.14.19.26.3.38.34.12.03.26.05.43.05v.29h-5.85v-.29Z"/><path class="d" d="m86.72,176.88c.14-.03.26-.07.36-.11.1-.04.15-.14.15-.3,0-.03-.06-.21-.17-.53-.11-.32-.26-.74-.45-1.26s-.4-1.11-.63-1.78c-.23-.66-.47-1.34-.71-2.03-.25-.69-.49-1.37-.73-2.04-.24-.67-.45-1.27-.64-1.81-.19-.54-.34-.98-.46-1.33s-.19-.55-.2-.6c-.05-.18-.14-.26-.26-.26v-.29h4.67v.29c-.15.03-.28.07-.38.11-.1.04-.15.12-.15.25,0,.05.05.22.14.5.09.29.22.66.37,1.1.15.45.32.94.51,1.48l.56,1.61c.19.54.36,1.04.52,1.52.16.48.29.88.4,1.2h.05c.1-.3.23-.69.38-1.16s.32-.98.5-1.51c.18-.54.36-1.08.54-1.62.18-.54.34-1.04.48-1.49s.26-.82.34-1.12c.08-.3.13-.47.13-.52,0-.13-.06-.21-.19-.25-.13-.04-.24-.08-.34-.11v-.29h6.07v.29c-.12.03-.22.07-.31.11-.09.04-.13.12-.13.25,0,.02.04.18.13.48.08.3.2.69.33,1.15.14.46.29.98.46,1.55.17.57.33,1.12.48,1.66.15.54.3,1.04.43,1.5.14.46.24.82.31,1.08h.05c.05-.19.15-.5.29-.92.14-.42.31-.9.5-1.43s.38-1.08.57-1.64c.2-.57.38-1.09.55-1.57.17-.48.31-.89.42-1.22.11-.34.17-.53.17-.58,0-.14-.06-.24-.17-.29-.11-.05-.23-.09-.37-.12v-.29h4.29v.29c-.14.02-.23.06-.29.14-.06.08-.11.18-.14.31-.02.05-.09.24-.2.59-.12.34-.27.78-.46,1.3-.19.52-.4,1.11-.64,1.77-.24.66-.49,1.34-.74,2.02-.26.68-.5,1.35-.73,2s-.44,1.24-.63,1.76c-.19.52-.34.94-.45,1.27-.11.33-.17.51-.17.54,0,.14.06.23.17.26.11.03.23.06.34.07v.29h-5.31v-.29c.34-.05.51-.16.51-.34,0-.19-.09-.59-.26-1.19-.17-.6-.38-1.3-.63-2.1-.25-.8-.51-1.65-.79-2.55-.28-.9-.54-1.75-.78-2.55h-.05c-.2.7-.46,1.52-.77,2.43-.31.92-.6,1.8-.89,2.65-.29.85-.54,1.58-.74,2.21s-.31.99-.31,1.1c0,.22.19.34.56.34v.29h-5.51v-.29Z"/><path class="d" d="m109.03,165.27c0-.11-.04-.2-.12-.28-.08-.07-.28-.12-.6-.16v-.29h9.72c.7,0,1.34.06,1.91.19.58.13,1.08.32,1.51.59.42.26.76.61,1,1.03.24.42.36.93.36,1.52,0,.72-.23,1.3-.69,1.74s-1.05.73-1.76.88v.05c.87.22,1.58.57,2.13,1.03.55.46.83,1.14.83,2.04,0,.48-.1.94-.29,1.37-.2.43-.5.81-.92,1.13-.42.32-.95.58-1.61.77-.66.19-1.43.29-2.34.29h-9.85v-.29c.32-.03.52-.08.6-.16.08-.07.12-.16.12-.28v-11.18Zm7.3,4.03c.54,0,1-.01,1.35-.04.36-.02.64-.08.84-.16.2-.08.35-.19.43-.34.08-.14.13-.34.13-.58s-.04-.43-.13-.58c-.09-.14-.23-.26-.43-.34-.2-.08-.48-.13-.84-.16-.36-.02-.81-.04-1.35-.04h-3.47v2.21h3.47Zm.87,5.33c.92,0,1.57-.11,1.94-.32.37-.22.56-.59.56-1.12s-.19-.9-.56-1.12c-.37-.22-1.02-.32-1.94-.32h-4.34v2.88h4.34Z"/><path class="d" d="m136.9,172.56c-.03-.16-.11-.29-.22-.4-.11-.1-.29-.16-.55-.16h-4.75v2.23h8.19c.14,0,.24-.04.31-.13.07-.09.12-.28.15-.59h.31v4.1h-.31c-.03-.21-.08-.34-.15-.38-.07-.05-.17-.07-.31-.07h-12.74v-.29c.32-.03.52-.08.6-.16.08-.07.12-.16.12-.28v-11.18c0-.11-.04-.2-.12-.28-.08-.07-.28-.12-.6-.16v-.29h12.74c.14,0,.24-.04.31-.13.07-.09.12-.27.15-.54h.31v4.17h-.31c-.03-.27-.08-.45-.15-.54-.07-.09-.17-.13-.31-.13h-8.19v1.99h4.75c.26,0,.44-.05.55-.16.11-.1.18-.24.22-.4h.31v3.74h-.31Z"/><path class="d" d="m157.19,174.24c.14,0,.24-.04.31-.13.07-.09.12-.27.15-.54h.31v4.15h-.31c-.03-.26-.09-.41-.15-.47-.07-.06-.17-.08-.31-.08h-13.32v-.29c.32-.03.52-.08.6-.16.08-.07.12-.16.12-.28v-11.18c0-.11-.04-.2-.12-.28-.08-.07-.28-.12-.6-.16v-.29h5.26v.29c-.32.03-.52.08-.6.16-.08.07-.12.16-.12.28v8.97h8.78Z"/></svg>