<?xml version="1.0" encoding="UTF-8"?><svg id="a" xmlns="http://www.w3.org/2000/svg" viewBox="0 0 1792 1792"><defs><style>.b{fill:#fff;stroke-width:0px;}</style></defs><path class="b" d="m1463.53,396.98c-11.77-6.08-23.23-12.75-34.33-19.98-32.29-21.35-61.89-46.5-88.18-74.92-65.76-75.24-90.32-151.57-99.37-205.02h.36c-7.56-44.36-4.43-73.06-3.96-73.06h-299.52v1158.17c0,15.55,0,30.92-.65,46.1,0,1.89-.18,3.63-.29,5.67,0,.84,0,1.71-.18,2.58v.65c-6.41,84.38-54.38,160.05-127.96,201.86-37.76,21.48-80.48,32.75-123.93,32.7-139.55,0-252.65-113.79-252.65-254.32s113.1-254.32,252.65-254.32c26.42-.02,52.67,4.13,77.79,12.32l.36-304.97c-154.15-19.91-309.6,25.56-428.71,125.42-51.62,44.85-95.03,98.37-128.25,158.15-12.64,21.8-60.35,109.39-66.12,251.56-3.63,80.69,20.6,164.29,32.15,198.84v.73c7.27,20.35,35.42,89.77,81.31,148.3,37,46.95,80.72,88.19,129.74,122.4v-.73l.73.73c145,98.53,305.76,92.06,305.76,92.06,27.83-1.13,121.06,0,226.93-50.17,117.42-55.62,184.27-138.49,184.27-138.49,42.71-49.52,76.67-105.95,100.42-166.87,27.1-71.25,36.15-156.7,36.15-190.85v-614.44c3.63,2.18,52.03,34.19,52.03,34.19,0,0,69.72,44.69,178.5,73.79,78.04,20.71,183.18,25.07,183.18,25.07v-297.34c-36.84,4-111.65-7.63-188.23-45.81Z"/></svg>