<?xml version="1.0" encoding="utf-8"?>
<!-- Generator: Adobe Illustrator 28.0.0, SVG Export Plug-In . SVG Version: 6.00 Build 0)  -->
<svg version="1.1" id="Layer_1" xmlns="http://www.w3.org/2000/svg" xmlns:xlink="http://www.w3.org/1999/xlink" x="0px" y="0px"
	 viewBox="0 0 1792 1792" style="enable-background:new 0 0 1792 1792;" xml:space="preserve">
<style type="text/css">
	.st0{fill:#FFFFFF;}
</style>
<path class="st0" d="M438.5,1418.5c0-17.3-6.3-32.3-19-45s-27.7-19-45-19s-32.3,6.3-45,19s-19,27.7-19,45s6.3,32.3,19,45
	s27.7,19,45,19s32.3-6.3,45-19S438.5,1435.8,438.5,1418.5z M1082.5,998.5l-682,682c-24.7,24.7-54.7,37-90,37c-34.7,0-65-12.3-91-37
	l-106-108c-25.3-24-38-54-38-90c0-35.3,12.7-65.7,38-91l681-681c26,65.3,64.2,123.2,114.5,173.5S1017.2,972.5,1082.5,998.5z
	 M1716.5,563.5c0,26-7.7,61.3-23,106c-31.3,89.3-86.2,161.8-164.5,217.5s-164.5,83.5-258.5,83.5c-123.3,0-228.8-43.8-316.5-131.5
	S822.5,645.8,822.5,522.5S866.3,293.7,954,206s193.2-131.5,316.5-131.5c38.7,0,79.2,5.5,121.5,16.5s78.2,26.5,107.5,46.5
	c10.7,7.3,16,16.7,16,28s-5.3,20.7-16,28l-293,169v224l193,107c3.3-2,29.7-18.2,79-48.5s94.5-57.3,135.5-81s64.5-35.5,70.5-35.5
	c10,0,17.8,3.3,23.5,10S1716.5,553.5,1716.5,563.5z"/>
</svg>
